<?xml version="1.0" encoding="utf-8" standalone="no"?>
<!DOCTYPE svg PUBLIC "-//W3C//DTD SVG 1.1//EN"
  "http://www.w3.org/Graphics/SVG/1.1/DTD/svg11.dtd">
<svg xmlns:xlink="http://www.w3.org/1999/xlink" width="460.8pt" height="345.6pt" viewBox="0 0 460.8 345.6" xmlns="http://www.w3.org/2000/svg" version="1.1">
 <metadata>
  <rdf:RDF xmlns:dc="http://purl.org/dc/elements/1.1/" xmlns:cc="http://creativecommons.org/ns#" xmlns:rdf="http://www.w3.org/1999/02/22-rdf-syntax-ns#">
   <cc:Work>
    <dc:type rdf:resource="http://purl.org/dc/dcmitype/StillImage"/>
    <dc:date>2024-05-08T08:02:05.983480</dc:date>
    <dc:format>image/svg+xml</dc:format>
    <dc:creator>
     <cc:Agent>
      <dc:title>Matplotlib v3.7.1, https://matplotlib.org/</dc:title>
     </cc:Agent>
    </dc:creator>
   </cc:Work>
  </rdf:RDF>
 </metadata>
 <defs>
  <style type="text/css">*{stroke-linejoin: round; stroke-linecap: butt}</style>
 </defs>
 <g id="figure_1">
  <g id="patch_1">
   <path d="M 0 345.6 
L 460.8 345.6 
L 460.8 0 
L 0 0 
z
" style="fill: #ffffff"/>
  </g>
  <g id="axes_1">
   <g id="patch_2">
    <path d="M 57.6 307.584 
L 414.72 307.584 
L 414.72 41.472 
L 57.6 41.472 
z
" style="fill: #ffffff"/>
   </g>
   <g id="PolyCollection_1">
    <defs>
     <path id="m4fe03e4213" d="M 57.6 -304.128 
L 57.6 -46.8864 
L 200.34081 -46.8864 
L 200.34081 -304.128 
L 200.34081 -304.128 
L 57.6 -304.128 
z
" style="stroke: #ff0000; stroke-opacity: 0.3"/>
    </defs>
    <g clip-path="url(#p259b922350)">
     <use xlink:href="#m4fe03e4213" x="0" y="345.6" style="fill: #ff0000; fill-opacity: 0.3; stroke: #ff0000; stroke-opacity: 0.3"/>
    </g>
   </g>
   <g id="PolyCollection_2">
    <defs>
     <path id="m5800b278ad" d="M 271.80054 -38.016 
L 271.80054 -215.424 
L 414.72 -215.424 
L 414.72 -38.016 
L 414.72 -38.016 
L 271.80054 -38.016 
z
" style="stroke: #ff0000; stroke-opacity: 0.3"/>
    </defs>
    <g clip-path="url(#p259b922350)">
     <use xlink:href="#m5800b278ad" x="0" y="345.6" style="fill: #ff0000; fill-opacity: 0.3; stroke: #ff0000; stroke-opacity: 0.3"/>
    </g>
   </g>
   <g id="matplotlib.axis_1">
    <g id="xtick_1">
     <g id="line2d_1">
      <path d="M 128.881081 307.584 
L 128.881081 41.472 
" clip-path="url(#p259b922350)" style="fill: none; stroke: #b0b0b0; stroke-width: 0.8; stroke-linecap: square"/>
     </g>
     <g id="line2d_2">
      <defs>
       <path id="m6c0a9eafda" d="M 0 0 
L 0 3.5 
" style="stroke: #000000; stroke-width: 0.8"/>
      </defs>
      <g>
       <use xlink:href="#m6c0a9eafda" x="128.881081" y="307.584" style="stroke: #000000; stroke-width: 0.8"/>
      </g>
     </g>
     <g id="text_1">
      <!-- 400 -->
      <g transform="translate(121.409078 321.502498) scale(0.1 -0.1)">
       <defs>
        <path id="CMSS17-34" d="M 2253 1088 
L 2835 1088 
L 2835 1477 
L 2253 1477 
L 2253 4192 
L 1690 4192 
L 166 1477 
L 166 1088 
L 1747 1088 
L 1747 0 
L 2253 0 
L 2253 1088 
z
M 659 1477 
C 1030 2127 1766 3439 1766 3885 
L 1766 1477 
L 659 1477 
z
" transform="scale(0.015625)"/>
        <path id="CMSS17-30" d="M 2758 2044 
C 2758 2405 2752 3077 2490 3596 
C 2227 4096 1805 4229 1504 4229 
C 1069 4229 698 3975 506 3570 
C 301 3146 243 2709 243 2044 
C 243 1589 262 1031 493 543 
C 755 5 1197 -128 1498 -128 
C 1894 -128 2278 81 2496 518 
C 2720 974 2758 1474 2758 2044 
z
M 1498 261 
C 1011 261 864 811 819 995 
C 742 1310 730 1614 730 2114 
C 730 2506 730 2948 851 3297 
C 998 3701 1254 3840 1498 3840 
C 1971 3840 2125 3372 2176 3208 
C 2272 2873 2272 2481 2272 2114 
C 2272 1526 2272 261 1498 261 
z
" transform="scale(0.015625)"/>
       </defs>
       <use xlink:href="#CMSS17-34" transform="scale(0.996264)"/>
       <use xlink:href="#CMSS17-30" transform="translate(46.843624 0) scale(0.996264)"/>
       <use xlink:href="#CMSS17-30" transform="translate(93.687247 0) scale(0.996264)"/>
      </g>
     </g>
    </g>
    <g id="xtick_2">
     <g id="line2d_3">
      <path d="M 200.34081 307.584 
L 200.34081 41.472 
" clip-path="url(#p259b922350)" style="fill: none; stroke: #b0b0b0; stroke-width: 0.8; stroke-linecap: square"/>
     </g>
     <g id="line2d_4">
      <g>
       <use xlink:href="#m6c0a9eafda" x="200.34081" y="307.584" style="stroke: #000000; stroke-width: 0.8"/>
      </g>
     </g>
     <g id="text_2">
      <!-- $f_p =$ 800 -->
      <g transform="translate(181.20901 321.502498) scale(0.1 -0.1)">
       <defs>
        <path id="CMMI12-66" d="M 2854 2566 
C 2982 2566 3034 2566 3034 2688 
C 3034 2752 2982 2752 2867 2752 
L 2349 2752 
C 2470 3429 2560 3897 2611 4107 
C 2650 4265 2784 4416 2950 4416 
C 3085 4416 3219 4358 3283 4298 
C 3034 4272 2957 4082 2957 3969 
C 2957 3837 3053 3759 3174 3759 
C 3302 3759 3494 3870 3494 4119 
C 3494 4393 3226 4544 2944 4544 
C 2669 4544 2400 4334 2272 4078 
C 2157 3848 2093 3611 1946 2752 
L 1517 2752 
C 1395 2752 1331 2752 1331 2637 
C 1331 2566 1370 2566 1498 2566 
L 1907 2566 
C 1792 1976 1530 542 1382 -137 
C 1274 -689 1178 -1152 858 -1152 
C 838 -1152 653 -1152 538 -1031 
C 864 -1005 864 -726 864 -720 
C 864 -593 768 -517 646 -517 
C 518 -517 326 -625 326 -867 
C 326 -1140 608 -1280 858 -1280 
C 1510 -1280 1779 -118 1850 199 
C 1965 688 2278 2376 2310 2566 
L 2854 2566 
z
" transform="scale(0.015625)"/>
        <path id="CMMI12-70" d="M 275 -789 
C 230 -980 205 -1031 -58 -1031 
C -134 -1031 -198 -1031 -198 -1152 
C -198 -1165 -192 -1216 -122 -1216 
C -38 -1216 51 -1216 134 -1216 
L 410 -1216 
C 544 -1216 870 -1216 1005 -1216 
C 1043 -1216 1120 -1216 1120 -1101 
C 1120 -1031 1075 -1031 966 -1031 
C 672 -1031 653 -987 653 -937 
C 653 -861 941 219 979 364 
C 1050 185 1222 -64 1555 -64 
C 2278 -64 3059 875 3059 1814 
C 3059 2401 2726 2816 2246 2816 
C 1837 2816 1491 2420 1421 2331 
C 1370 2650 1120 2816 864 2816 
C 678 2816 531 2727 410 2484 
C 294 2254 205 1865 205 1839 
C 205 1814 230 1782 275 1782 
C 326 1782 333 1788 371 1935 
C 467 2312 589 2689 845 2689 
C 992 2689 1043 2587 1043 2397 
C 1043 2245 1024 2181 998 2067 
L 275 -789 
z
M 1382 1993 
C 1427 2171 1606 2357 1709 2446 
C 1779 2510 1990 2689 2234 2689 
C 2515 2689 2643 2408 2643 2076 
C 2643 1769 2464 1047 2304 715 
C 2144 370 1850 64 1555 64 
C 1120 64 1050 613 1050 639 
C 1050 658 1062 709 1069 741 
L 1382 1993 
z
" transform="scale(0.015625)"/>
        <path id="CMR17-3d" d="M 4115 2017 
C 4211 2017 4307 2017 4307 2125 
C 4307 2240 4198 2240 4090 2240 
L 512 2240 
C 403 2240 294 2240 294 2125 
C 294 2017 390 2017 486 2017 
L 4115 2017 
z
M 4090 896 
C 4198 896 4307 896 4307 1011 
C 4307 1119 4211 1119 4115 1119 
L 486 1119 
C 390 1119 294 1119 294 1011 
C 294 896 403 896 512 896 
L 4090 896 
z
" transform="scale(0.015625)"/>
        <path id="CMSS17-38" d="M 1933 2222 
C 2419 2380 2669 2760 2669 3134 
C 2669 3722 2157 4229 1504 4229 
C 826 4229 333 3708 333 3144 
C 333 2780 576 2403 1069 2241 
C 442 1997 250 1512 250 1149 
C 250 446 819 -128 1498 -128 
C 2202 -128 2752 455 2752 1138 
C 2752 1557 2502 2000 1933 2222 
z
M 1504 2432 
C 1075 2432 787 2712 787 3136 
C 787 3566 1075 3840 1504 3840 
C 1901 3840 2214 3591 2214 3136 
C 2214 2687 1907 2432 1504 2432 
z
M 1504 267 
C 1139 267 749 517 749 1156 
C 749 1813 1184 2043 1498 2043 
C 1843 2043 2253 1800 2253 1156 
C 2253 491 1830 267 1504 267 
z
" transform="scale(0.015625)"/>
       </defs>
       <use xlink:href="#CMMI12-66" transform="scale(0.996264)"/>
       <use xlink:href="#CMMI12-70" transform="translate(48.083238 -14.943915) scale(0.697382)"/>
       <use xlink:href="#CMR17-3d" transform="translate(110.526885 0) scale(0.996264)"/>
       <use xlink:href="#CMSS17-38" transform="translate(213.470786 0) scale(0.996264)"/>
       <use xlink:href="#CMSS17-30" transform="translate(260.314409 0) scale(0.996264)"/>
       <use xlink:href="#CMSS17-30" transform="translate(307.158033 0) scale(0.996264)"/>
      </g>
     </g>
    </g>
    <g id="xtick_3">
     <g id="line2d_5">
      <path d="M 271.80054 307.584 
L 271.80054 41.472 
" clip-path="url(#p259b922350)" style="fill: none; stroke: #b0b0b0; stroke-width: 0.8; stroke-linecap: square"/>
     </g>
     <g id="line2d_6">
      <g>
       <use xlink:href="#m6c0a9eafda" x="271.80054" y="307.584" style="stroke: #000000; stroke-width: 0.8"/>
      </g>
     </g>
     <g id="text_3">
      <!-- $f_a =$ 1200 -->
      <g transform="translate(250.070824 321.502498) scale(0.1 -0.1)">
       <defs>
        <path id="CMMI12-61" d="M 1926 760 
C 1894 651 1894 639 1805 517 
C 1664 338 1382 64 1082 64 
C 819 64 672 300 672 677 
C 672 1028 870 1743 992 2012 
C 1210 2459 1510 2689 1760 2689 
C 2182 2689 2266 2165 2266 2114 
C 2266 2108 2246 2024 2240 2012 
L 1926 760 
z
M 2336 2395 
C 2266 2561 2093 2816 1760 2816 
C 1037 2816 256 1884 256 939 
C 256 307 627 -64 1062 -64 
C 1414 -64 1715 211 1894 422 
C 1958 45 2259 -64 2451 -64 
C 2643 -64 2797 51 2912 281 
C 3014 498 3104 888 3104 913 
C 3104 945 3078 971 3040 971 
C 2982 971 2976 939 2950 843 
C 2854 466 2733 64 2470 64 
C 2285 64 2272 230 2272 358 
C 2272 505 2291 575 2349 824 
C 2394 984 2426 1124 2477 1309 
C 2714 2267 2771 2497 2771 2535 
C 2771 2625 2701 2695 2605 2695 
C 2400 2695 2349 2472 2336 2395 
z
" transform="scale(0.015625)"/>
        <path id="CMSS17-31" d="M 1818 4288 
L 1696 4288 
C 1350 3940 947 3890 538 3890 
L 538 3520 
C 723 3520 1024 3520 1325 3667 
L 1325 369 
L 570 369 
L 570 0 
L 2573 0 
L 2573 369 
L 1818 369 
L 1818 4288 
z
" transform="scale(0.015625)"/>
        <path id="CMSS17-32" d="M 1651 1357 
C 1830 1541 2099 1764 2285 1987 
C 2464 2204 2701 2511 2701 2957 
C 2701 3657 2227 4288 1421 4288 
C 787 4288 422 3893 250 3274 
L 499 2929 
C 640 3510 838 3880 1338 3880 
C 1888 3880 2195 3433 2195 2942 
C 2195 2355 1747 1901 1408 1563 
C 1030 1187 659 804 301 408 
L 301 0 
L 2701 0 
L 2701 433 
L 1613 433 
C 1536 433 1459 433 1382 433 
L 742 433 
L 742 439 
L 1651 1357 
z
" transform="scale(0.015625)"/>
       </defs>
       <use xlink:href="#CMMI12-66" transform="scale(0.996264)"/>
       <use xlink:href="#CMMI12-61" transform="translate(48.083238 -14.943915) scale(0.697382)"/>
       <use xlink:href="#CMR17-3d" transform="translate(112.100725 0) scale(0.996264)"/>
       <use xlink:href="#CMSS17-31" transform="translate(215.044626 0) scale(0.996264)"/>
       <use xlink:href="#CMSS17-32" transform="translate(261.88825 0) scale(0.996264)"/>
       <use xlink:href="#CMSS17-30" transform="translate(308.731873 0) scale(0.996264)"/>
       <use xlink:href="#CMSS17-30" transform="translate(355.575497 0) scale(0.996264)"/>
      </g>
     </g>
    </g>
    <g id="xtick_4">
     <g id="line2d_7">
      <path d="M 343.26027 307.584 
L 343.26027 41.472 
" clip-path="url(#p259b922350)" style="fill: none; stroke: #b0b0b0; stroke-width: 0.8; stroke-linecap: square"/>
     </g>
     <g id="line2d_8">
      <g>
       <use xlink:href="#m6c0a9eafda" x="343.26027" y="307.584" style="stroke: #000000; stroke-width: 0.8"/>
      </g>
     </g>
     <g id="text_4">
      <!-- 1600 -->
      <g transform="translate(333.2976 321.502498) scale(0.1 -0.1)">
       <defs>
        <path id="CMSS17-36" d="M 2496 4101 
C 2227 4210 2035 4229 1856 4229 
C 1024 4229 250 3368 250 2006 
C 250 265 986 -128 1510 -128 
C 1798 -128 2086 -39 2362 280 
C 2643 617 2752 898 2752 1389 
C 2752 2179 2362 2880 1779 2880 
C 1357 2880 992 2657 768 2376 
C 832 3258 1254 3840 1862 3840 
C 2029 3840 2246 3816 2496 3710 
L 2496 4101 
z
M 774 1369 
C 774 1420 774 1452 781 1548 
C 781 2045 1069 2491 1536 2491 
C 1837 2491 1990 2332 2106 2135 
C 2240 1886 2246 1650 2246 1388 
C 2246 1140 2246 891 2099 637 
C 1978 439 1818 267 1510 267 
C 902 267 800 1114 774 1369 
z
" transform="scale(0.015625)"/>
       </defs>
       <use xlink:href="#CMSS17-31" transform="scale(0.996264)"/>
       <use xlink:href="#CMSS17-36" transform="translate(46.843624 0) scale(0.996264)"/>
       <use xlink:href="#CMSS17-30" transform="translate(93.687247 0) scale(0.996264)"/>
       <use xlink:href="#CMSS17-30" transform="translate(140.530871 0) scale(0.996264)"/>
      </g>
     </g>
    </g>
    <g id="xtick_5">
     <g id="line2d_9">
      <path d="M 414.72 307.584 
L 414.72 41.472 
" clip-path="url(#p259b922350)" style="fill: none; stroke: #b0b0b0; stroke-width: 0.8; stroke-linecap: square"/>
     </g>
     <g id="line2d_10">
      <g>
       <use xlink:href="#m6c0a9eafda" x="414.72" y="307.584" style="stroke: #000000; stroke-width: 0.8"/>
      </g>
     </g>
     <g id="text_5">
      <!-- 2000 -->
      <g transform="translate(404.757329 321.502498) scale(0.1 -0.1)">
       <use xlink:href="#CMSS17-32" transform="scale(0.996264)"/>
       <use xlink:href="#CMSS17-30" transform="translate(46.843624 0) scale(0.996264)"/>
       <use xlink:href="#CMSS17-30" transform="translate(93.687247 0) scale(0.996264)"/>
       <use xlink:href="#CMSS17-30" transform="translate(140.530871 0) scale(0.996264)"/>
      </g>
     </g>
    </g>
    <g id="text_6">
     <!-- $f$ (Hz) -->
     <g transform="translate(221.956268 335.824873) scale(0.1 -0.1)">
      <defs>
       <path id="CMSS17-28" d="M 1613 4768 
C 1267 4417 474 3601 474 1588 
C 474 -433 1267 -1243 1613 -1600 
L 2003 -1600 
C 1216 -784 960 357 960 1581 
C 960 2798 1203 3946 2003 4768 
L 1613 4768 
z
" transform="scale(0.015625)"/>
       <path id="CMSS17-48" d="M 3674 4416 
L 3136 4416 
L 3136 2501 
L 1101 2501 
L 1101 4416 
L 563 4416 
L 563 0 
L 1101 0 
L 1101 2112 
L 3136 2112 
L 3136 0 
L 3674 0 
L 3674 4416 
z
" transform="scale(0.015625)"/>
       <path id="CMSS17-7a" d="M 2400 2502 
L 2400 2750 
L 250 2750 
L 250 2368 
L 1069 2368 
C 1146 2368 1222 2368 1299 2368 
L 1747 2368 
L 166 261 
L 166 0 
L 2419 0 
L 2419 395 
L 1549 395 
C 1472 395 1395 395 1318 395 
L 826 395 
L 2400 2502 
z
" transform="scale(0.015625)"/>
       <path id="CMSS17-29" d="M 723 -1600 
C 1069 -1249 1862 -433 1862 1581 
C 1862 3601 1069 4411 723 4768 
L 333 4768 
C 1120 3952 1376 2811 1376 1588 
C 1376 370 1133 -778 333 -1600 
L 723 -1600 
z
" transform="scale(0.015625)"/>
      </defs>
      <use xlink:href="#CMMI12-66" transform="scale(0.996264)"/>
      <use xlink:href="#CMSS17-28" transform="translate(89.949418 0) scale(0.996264)"/>
      <use xlink:href="#CMSS17-48" transform="translate(126.383332 0) scale(0.996264)"/>
      <use xlink:href="#CMSS17-7a" transform="translate(192.444851 0) scale(0.996264)"/>
      <use xlink:href="#CMSS17-29" transform="translate(233.122723 0) scale(0.996264)"/>
     </g>
    </g>
   </g>
   <g id="matplotlib.axis_2">
    <g id="ytick_1">
     <g id="line2d_11">
      <path d="M 57.6 307.584 
L 414.72 307.584 
" clip-path="url(#p259b922350)" style="fill: none; stroke: #b0b0b0; stroke-width: 0.8; stroke-linecap: square"/>
     </g>
     <g id="line2d_12">
      <defs>
       <path id="m355339f2c3" d="M 0 0 
L -3.5 0 
" style="stroke: #000000; stroke-width: 0.8"/>
      </defs>
      <g>
       <use xlink:href="#m355339f2c3" x="57.6" y="307.584" style="stroke: #000000; stroke-width: 0.8"/>
      </g>
     </g>
     <g id="text_7">
      <!-- 0 -->
      <g transform="translate(45.618665 311.043249) scale(0.1 -0.1)">
       <use xlink:href="#CMSS17-30" transform="scale(0.996264)"/>
      </g>
     </g>
    </g>
    <g id="ytick_2">
     <g id="line2d_13">
      <path d="M 57.6 298.7136 
L 414.72 298.7136 
" clip-path="url(#p259b922350)" style="fill: none; stroke: #b0b0b0; stroke-width: 0.8; stroke-linecap: square"/>
     </g>
     <g id="line2d_14">
      <g>
       <use xlink:href="#m355339f2c3" x="57.6" y="298.7136" style="stroke: #000000; stroke-width: 0.8"/>
      </g>
     </g>
     <g id="text_8">
      <!-- $\alpha_p =$ 0.5 -->
      <g transform="translate(13.054775 301.979133) scale(0.1 -0.1)">
       <defs>
        <path id="CMMI12-b" d="M 2963 1616 
C 2963 2235 2611 2815 1933 2815 
C 1094 2815 256 1902 256 996 
C 256 441 602 -64 1254 -64 
C 1651 -64 2125 89 2579 472 
C 2669 115 2867 -64 3142 -64 
C 3488 -64 3661 294 3661 377 
C 3661 434 3616 434 3597 434 
C 3546 434 3539 415 3520 364 
C 3462 204 3315 64 3162 64 
C 2963 64 2963 472 2963 862 
C 3616 1641 3770 2446 3770 2452 
C 3770 2510 3718 2510 3699 2510 
C 3642 2510 3635 2491 3610 2376 
C 3526 2095 3360 1597 2963 1073 
L 2963 1616 
z
M 2560 626 
C 1997 121 1491 64 1267 64 
C 813 64 685 466 685 766 
C 685 1040 826 1692 1024 2044 
C 1286 2491 1645 2688 1933 2688 
C 2554 2688 2554 1877 2554 1341 
C 2554 1182 2547 1016 2547 856 
C 2547 728 2554 696 2560 626 
z
" transform="scale(0.015625)"/>
        <path id="CMSS17-2e" d="M 1088 510 
L 576 510 
L 576 0 
L 1088 0 
L 1088 510 
z
" transform="scale(0.015625)"/>
        <path id="CMSS17-35" d="M 934 3752 
L 2502 3752 
L 2502 4160 
L 467 4160 
L 467 1781 
L 896 1781 
C 1011 2046 1248 2240 1555 2240 
C 1843 2240 2163 1989 2163 1266 
C 2163 493 1709 267 1376 267 
C 966 267 589 512 422 851 
L 218 499 
C 512 49 992 -128 1376 -128 
C 2118 -128 2701 497 2701 1253 
C 2701 2030 2182 2629 1562 2629 
C 1338 2629 1120 2553 934 2399 
L 934 3752 
z
" transform="scale(0.015625)"/>
       </defs>
       <use xlink:href="#CMMI12-b" transform="scale(0.996264)"/>
       <use xlink:href="#CMMI12-70" transform="translate(62.046728 -14.943915) scale(0.697382)"/>
       <use xlink:href="#CMR17-3d" transform="translate(124.490375 0) scale(0.996264)"/>
       <use xlink:href="#CMSS17-30" transform="translate(227.434277 0) scale(0.996264)"/>
       <use xlink:href="#CMSS17-2e" transform="translate(274.2779 0) scale(0.996264)"/>
       <use xlink:href="#CMSS17-35" transform="translate(300.302105 0) scale(0.996264)"/>
      </g>
     </g>
    </g>
    <g id="ytick_3">
     <g id="line2d_15">
      <path d="M 57.6 272.1024 
L 414.72 272.1024 
" clip-path="url(#p259b922350)" style="fill: none; stroke: #b0b0b0; stroke-width: 0.8; stroke-linecap: square"/>
     </g>
     <g id="line2d_16">
      <g>
       <use xlink:href="#m355339f2c3" x="57.6" y="272.1024" style="stroke: #000000; stroke-width: 0.8"/>
      </g>
     </g>
     <g id="text_9">
      <!-- 2 -->
      <g transform="translate(45.618665 275.561649) scale(0.1 -0.1)">
       <use xlink:href="#CMSS17-32" transform="scale(0.996264)"/>
      </g>
     </g>
    </g>
    <g id="ytick_4">
     <g id="line2d_17">
      <path d="M 57.6 236.6208 
L 414.72 236.6208 
" clip-path="url(#p259b922350)" style="fill: none; stroke: #b0b0b0; stroke-width: 0.8; stroke-linecap: square"/>
     </g>
     <g id="line2d_18">
      <g>
       <use xlink:href="#m355339f2c3" x="57.6" y="236.6208" style="stroke: #000000; stroke-width: 0.8"/>
      </g>
     </g>
     <g id="text_10">
      <!-- 4 -->
      <g transform="translate(45.618665 240.080049) scale(0.1 -0.1)">
       <use xlink:href="#CMSS17-34" transform="scale(0.996264)"/>
      </g>
     </g>
    </g>
    <g id="ytick_5">
     <g id="line2d_19">
      <path d="M 57.6 201.1392 
L 414.72 201.1392 
" clip-path="url(#p259b922350)" style="fill: none; stroke: #b0b0b0; stroke-width: 0.8; stroke-linecap: square"/>
     </g>
     <g id="line2d_20">
      <g>
       <use xlink:href="#m355339f2c3" x="57.6" y="201.1392" style="stroke: #000000; stroke-width: 0.8"/>
      </g>
     </g>
     <g id="text_11">
      <!-- 6 -->
      <g transform="translate(45.618665 204.598449) scale(0.1 -0.1)">
       <use xlink:href="#CMSS17-36" transform="scale(0.996264)"/>
      </g>
     </g>
    </g>
    <g id="ytick_6">
     <g id="line2d_21">
      <path d="M 57.6 165.6576 
L 414.72 165.6576 
" clip-path="url(#p259b922350)" style="fill: none; stroke: #b0b0b0; stroke-width: 0.8; stroke-linecap: square"/>
     </g>
     <g id="line2d_22">
      <g>
       <use xlink:href="#m355339f2c3" x="57.6" y="165.6576" style="stroke: #000000; stroke-width: 0.8"/>
      </g>
     </g>
     <g id="text_12">
      <!-- 8 -->
      <g transform="translate(45.618665 169.116849) scale(0.1 -0.1)">
       <use xlink:href="#CMSS17-38" transform="scale(0.996264)"/>
      </g>
     </g>
    </g>
    <g id="ytick_7">
     <g id="line2d_23">
      <path d="M 57.6 130.176 
L 414.72 130.176 
" clip-path="url(#p259b922350)" style="fill: none; stroke: #b0b0b0; stroke-width: 0.8; stroke-linecap: square"/>
     </g>
     <g id="line2d_24">
      <g>
       <use xlink:href="#m355339f2c3" x="57.6" y="130.176" style="stroke: #000000; stroke-width: 0.8"/>
      </g>
     </g>
     <g id="text_13">
      <!-- $\alpha_a =$ 10 -->
      <g transform="translate(15.607686 133.635249) scale(0.1 -0.1)">
       <use xlink:href="#CMMI12-b" transform="scale(0.996264)"/>
       <use xlink:href="#CMMI12-61" transform="translate(62.046728 -14.943915) scale(0.697382)"/>
       <use xlink:href="#CMR17-3d" transform="translate(126.064216 0) scale(0.996264)"/>
       <use xlink:href="#CMSS17-31" transform="translate(229.008117 0) scale(0.996264)"/>
       <use xlink:href="#CMSS17-30" transform="translate(275.851741 0) scale(0.996264)"/>
      </g>
     </g>
    </g>
    <g id="ytick_8">
     <g id="line2d_25">
      <path d="M 57.6 94.6944 
L 414.72 94.6944 
" clip-path="url(#p259b922350)" style="fill: none; stroke: #b0b0b0; stroke-width: 0.8; stroke-linecap: square"/>
     </g>
     <g id="line2d_26">
      <g>
       <use xlink:href="#m355339f2c3" x="57.6" y="94.6944" style="stroke: #000000; stroke-width: 0.8"/>
      </g>
     </g>
     <g id="text_14">
      <!-- 12 -->
      <g transform="translate(40.637329 98.153649) scale(0.1 -0.1)">
       <use xlink:href="#CMSS17-31" transform="scale(0.996264)"/>
       <use xlink:href="#CMSS17-32" transform="translate(46.843624 0) scale(0.996264)"/>
      </g>
     </g>
    </g>
    <g id="ytick_9">
     <g id="line2d_27">
      <path d="M 57.6 59.2128 
L 414.72 59.2128 
" clip-path="url(#p259b922350)" style="fill: none; stroke: #b0b0b0; stroke-width: 0.8; stroke-linecap: square"/>
     </g>
     <g id="line2d_28">
      <g>
       <use xlink:href="#m355339f2c3" x="57.6" y="59.2128" style="stroke: #000000; stroke-width: 0.8"/>
      </g>
     </g>
     <g id="text_15">
      <!-- 14 -->
      <g transform="translate(40.637329 62.672049) scale(0.1 -0.1)">
       <use xlink:href="#CMSS17-31" transform="scale(0.996264)"/>
       <use xlink:href="#CMSS17-34" transform="translate(46.843624 0) scale(0.996264)"/>
      </g>
     </g>
    </g>
    <g id="text_16">
     <!-- $\alpha$ (dB) -->
     <g transform="translate(6.564115 189.162383) rotate(-90) scale(0.1 -0.1)">
      <defs>
       <path id="CMSS17-64" d="M 2611 4416 
L 2138 4416 
L 2138 2438 
C 1939 2603 1613 2756 1254 2756 
C 672 2756 211 2131 211 1347 
C 211 562 666 -64 1235 -64 
C 1677 -64 1971 172 2125 306 
L 2125 -13 
L 2611 -13 
L 2611 4416 
z
M 2125 836 
C 2125 747 2125 653 1926 482 
C 1798 375 1645 325 1498 325 
C 1152 325 698 576 698 1340 
C 698 2134 1210 2368 1562 2368 
C 1798 2368 1990 2254 2125 2065 
L 2125 836 
z
" transform="scale(0.015625)"/>
       <path id="CMSS17-42" d="M 570 4416 
L 570 0 
L 2163 0 
C 3034 0 3667 574 3667 1200 
C 3667 1685 3251 2176 2502 2317 
C 3334 2558 3501 3040 3501 3313 
C 3501 3883 2874 4416 1997 4416 
L 570 4416 
z
M 1088 2496 
L 1088 4059 
L 1824 4059 
C 2483 4059 3002 3724 3002 3306 
C 3002 2926 2592 2496 1766 2496 
L 1088 2496 
z
M 1088 357 
L 1088 2107 
L 1939 2107 
C 2630 2107 3162 1679 3162 1206 
C 3162 772 2694 357 1984 357 
L 1088 357 
z
" transform="scale(0.015625)"/>
      </defs>
      <use xlink:href="#CMMI12-b" transform="scale(0.996264)"/>
      <use xlink:href="#CMSS17-28" transform="translate(93.910136 0) scale(0.996264)"/>
      <use xlink:href="#CMSS17-64" transform="translate(130.34405 0) scale(0.996264)"/>
      <use xlink:href="#CMSS17-42" transform="translate(178.548993 0) scale(0.996264)"/>
      <use xlink:href="#CMSS17-29" transform="translate(240.887033 0) scale(0.996264)"/>
     </g>
    </g>
   </g>
   <g id="line2d_29">
    <path d="M 57.6 307.583922 
L 64.388674 307.465654 
L 71.177349 307.1237 
L 77.966023 306.561021 
L 84.933347 305.759074 
L 92.07932 304.707734 
L 99.403942 303.399476 
L 106.907214 301.829628 
L 114.589135 299.996522 
L 122.628354 297.851498 
L 131.203522 295.330376 
L 140.314637 292.415529 
L 150.14035 289.03328 
L 160.85931 285.103018 
L 172.828814 280.471428 
L 186.584812 274.904183 
L 203.556498 267.784573 
L 228.388754 257.099682 
L 276.266773 236.476267 
L 299.669835 226.66645 
L 320.929105 217.995493 
L 341.116478 209.999604 
L 360.946553 202.382683 
L 380.776628 195.005099 
L 400.606703 187.865845 
L 414.72 182.92762 
L 414.72 182.92762 
" clip-path="url(#p259b922350)" style="fill: none; stroke: #0000ff; stroke-width: 1.5; stroke-linecap: square"/>
   </g>
   <g id="line2d_30">
    <path d="M 57.6 307.583868 
L 62.78083 307.465571 
L 68.14031 307.116668 
L 73.678439 306.534012 
L 79.931166 305.646532 
L 87.613087 304.314939 
L 110.4802 300.182949 
L 116.554277 299.408014 
L 121.913757 298.944772 
L 126.915938 298.733692 
L 131.73947 298.755578 
L 136.384352 298.999729 
L 141.029235 299.468468 
L 145.674117 300.158153 
L 150.676298 301.130058 
L 156.393077 302.48164 
L 174.258009 306.916107 
L 177.652346 307.393805 
L 180.510735 307.57641 
L 183.011826 307.526777 
L 185.334267 307.270984 
L 187.478059 306.828056 
L 189.621851 306.161543 
L 191.765643 305.247826 
L 193.730785 304.17412 
L 195.695928 302.858566 
L 197.661071 301.287716 
L 199.804862 299.270086 
L 201.948654 296.925296 
L 204.092446 294.247508 
L 206.414887 290.96965 
L 208.737329 287.304769 
L 211.238419 282.938268 
L 213.918159 277.801096 
L 216.776548 271.836913 
L 219.992236 264.590946 
L 223.565223 255.967045 
L 227.674157 245.445669 
L 232.676338 231.994497 
L 239.643662 212.551889 
L 260.902931 152.823792 
L 268.584852 132.123022 
L 275.730825 113.497884 
L 282.698149 95.954357 
L 289.665473 79.020156 
L 296.632796 62.680912 
L 303.60012 46.913696 
L 310.567444 31.691289 
L 317.713417 16.614229 
L 324.85939 2.048603 
L 326.386163 -1 
L 326.386163 -1 
" clip-path="url(#p259b922350)" style="fill: none; stroke: #008000; stroke-width: 1.5; stroke-linecap: square"/>
   </g>
   <g id="patch_3">
    <path d="M 57.6 307.584 
L 57.6 41.472 
" style="fill: none; stroke: #000000; stroke-width: 0.8; stroke-linejoin: miter; stroke-linecap: square"/>
   </g>
   <g id="patch_4">
    <path d="M 414.72 307.584 
L 414.72 41.472 
" style="fill: none; opacity: 0.3; stroke: #000000; stroke-width: 0.8; stroke-linejoin: miter; stroke-linecap: square"/>
   </g>
   <g id="patch_5">
    <path d="M 57.6 307.584 
L 414.72 307.584 
" style="fill: none; stroke: #000000; stroke-width: 0.8; stroke-linejoin: miter; stroke-linecap: square"/>
   </g>
   <g id="patch_6">
    <path d="M 57.6 41.472 
L 414.72 41.472 
" style="fill: none; opacity: 0.3; stroke: #000000; stroke-width: 0.8; stroke-linejoin: miter; stroke-linecap: square"/>
   </g>
   <g id="text_17">
    <!-- Specification mask and response of both Low-pass Filters -->
    <g transform="translate(96.36783 35.472) scale(0.12 -0.12)">
     <defs>
      <path id="CMSS17-53" d="M 2797 4169 
C 2515 4334 2208 4480 1690 4480 
C 864 4480 333 3879 333 3266 
C 333 3025 403 2753 653 2475 
C 902 2196 1184 2121 1542 2033 
C 1690 1994 1939 1924 1984 1906 
C 2342 1767 2515 1444 2515 1140 
C 2515 742 2202 318 1645 318 
C 1453 318 890 318 358 819 
L 269 318 
C 794 -64 1363 -128 1651 -128 
C 2438 -128 3002 488 3002 1186 
C 3002 1440 2925 1763 2656 2061 
C 2394 2347 2163 2410 1638 2549 
C 1338 2626 1146 2677 986 2873 
C 877 3013 819 3146 819 3317 
C 819 3673 1126 4060 1690 4060 
C 1971 4060 2336 4002 2707 3660 
L 2797 4169 
z
" transform="scale(0.015625)"/>
      <path id="CMSS17-70" d="M 966 333 
C 1178 129 1466 -5 1773 -5 
C 2368 -5 2880 603 2880 1412 
C 2880 2159 2496 2816 1946 2816 
C 1626 2816 1242 2702 954 2472 
L 954 2765 
L 480 2765 
L 480 -1216 
L 966 -1216 
L 966 333 
z
M 966 2100 
C 1018 2176 1235 2415 1587 2415 
C 2035 2415 2394 1960 2394 1412 
C 2394 787 1958 384 1530 384 
C 1402 384 1267 415 1139 523 
C 966 674 966 768 966 857 
L 966 2100 
z
" transform="scale(0.015625)"/>
      <path id="CMSS17-65" d="M 2502 1377 
C 2502 1590 2490 2003 2285 2345 
C 2061 2713 1696 2816 1421 2816 
C 755 2816 192 2188 192 1375 
C 192 582 774 -64 1510 -64 
C 1798 -64 2150 19 2470 248 
C 2470 274 2458 414 2451 420 
C 2451 433 2432 630 2432 656 
C 2125 407 1773 325 1517 325 
C 1107 325 666 667 646 1377 
L 2502 1377 
z
M 698 1728 
C 781 2084 1062 2421 1421 2421 
C 1517 2421 1965 2421 2080 1728 
L 698 1728 
z
" transform="scale(0.015625)"/>
      <path id="CMSS17-63" d="M 2464 2541 
C 2464 2585 2170 2714 2093 2739 
C 1882 2816 1613 2816 1542 2816 
C 710 2816 211 2093 211 1363 
C 211 595 768 -64 1517 -64 
C 1946 -64 2253 76 2502 242 
L 2464 664 
C 2189 453 1869 337 1523 337 
C 1024 337 698 774 698 1369 
C 698 1831 909 2414 1549 2414 
C 1901 2414 2099 2343 2394 2145 
L 2464 2541 
z
" transform="scale(0.015625)"/>
      <path id="CMSS17-69" d="M 979 4183 
L 442 4183 
L 442 3648 
L 979 3648 
L 979 4183 
z
M 947 2739 
L 474 2739 
L 474 0 
L 947 0 
L 947 2739 
z
" transform="scale(0.015625)"/>
      <path id="CMSS17-c" d="M 2752 4416 
L 2240 4416 
L 2240 3906 
L 2752 3906 
L 2752 4416 
z
M 2733 2737 
L 2259 2737 
L 2259 0 
L 2733 0 
L 2733 2737 
z
M 1075 2368 
L 1773 2368 
L 1773 2737 
L 1062 2737 
L 1062 3578 
C 1062 3919 1216 4092 1421 4092 
C 1542 4092 1664 4056 1773 3992 
L 1773 4410 
C 1722 4428 1574 4480 1421 4480 
C 941 4480 602 3993 602 3372 
L 602 2737 
L 160 2737 
L 160 2368 
L 602 2368 
L 602 0 
L 1075 0 
L 1075 2368 
z
" transform="scale(0.015625)"/>
      <path id="CMSS17-61" d="M 2406 1791 
C 2406 2392 1978 2808 1402 2808 
C 1120 2808 813 2757 461 2553 
L 499 2135 
C 659 2248 934 2432 1395 2432 
C 1722 2432 1920 2180 1920 1782 
L 1920 1536 
C 896 1536 256 1238 256 726 
C 256 461 416 -64 947 -64 
C 1043 -64 1562 -64 1933 217 
L 1933 -19 
L 2406 -19 
L 2406 1791 
z
M 1920 816 
C 1920 701 1920 548 1728 434 
C 1562 325 1350 325 1261 325 
C 941 325 723 511 723 744 
C 723 1211 1722 1211 1920 1211 
L 1920 816 
z
" transform="scale(0.015625)"/>
      <path id="CMSS17-74" d="M 1069 2368 
L 1901 2368 
L 1901 2737 
L 1069 2737 
L 1069 3520 
L 614 3520 
L 614 2737 
L 109 2737 
L 109 2368 
L 602 2368 
L 602 749 
C 602 384 685 -64 1107 -64 
C 1427 -64 1722 25 2003 172 
L 1901 548 
C 1747 414 1562 337 1363 337 
C 1082 337 1069 696 1069 856 
L 1069 2368 
z
" transform="scale(0.015625)"/>
      <path id="CMSS17-6f" d="M 2829 1356 
C 2829 2176 2221 2816 1504 2816 
C 768 2816 173 2157 173 1356 
C 173 544 787 -64 1498 -64 
C 2227 -64 2829 563 2829 1356 
z
M 1504 337 
C 1050 337 659 709 659 1408 
C 659 2151 1114 2427 1498 2427 
C 1914 2427 2342 2126 2342 1408 
C 2342 683 1926 337 1504 337 
z
" transform="scale(0.015625)"/>
      <path id="CMSS17-6e" d="M 2618 1877 
C 2618 2283 2522 2816 1798 2816 
C 1389 2816 1120 2606 941 2389 
L 941 2758 
L 474 2758 
L 474 0 
L 960 0 
L 960 1559 
C 960 1964 1114 2428 1549 2428 
C 2112 2428 2131 2048 2131 1829 
L 2131 0 
L 2618 0 
L 2618 1877 
z
" transform="scale(0.015625)"/>
      <path id="CMSS17-6d" d="M 4288 1877 
C 4288 2308 4179 2816 3462 2816 
C 2982 2816 2694 2516 2566 2331 
C 2451 2670 2182 2816 1798 2816 
C 1363 2816 1088 2568 941 2389 
L 941 2758 
L 474 2758 
L 474 0 
L 960 0 
L 960 1559 
C 960 1939 1101 2428 1555 2428 
C 2138 2428 2138 2016 2138 1829 
L 2138 0 
L 2624 0 
L 2624 1559 
C 2624 1939 2765 2428 3219 2428 
C 3802 2428 3802 2016 3802 1829 
L 3802 0 
L 4288 0 
L 4288 1877 
z
" transform="scale(0.015625)"/>
      <path id="CMSS17-73" d="M 2061 2627 
C 1683 2807 1389 2807 1197 2807 
C 742 2807 198 2648 198 2003 
C 198 1359 902 1218 1094 1179 
C 1389 1122 1715 1058 1715 740 
C 1715 337 1254 337 1171 337 
C 915 337 563 407 243 638 
L 166 210 
C 531 0 883 -64 1178 -64 
C 1965 -64 2163 416 2163 781 
C 2163 1094 1984 1305 1862 1401 
C 1651 1568 1574 1587 1050 1696 
C 960 1709 646 1779 646 2066 
C 646 2432 1050 2432 1139 2432 
C 1555 2432 1811 2303 1984 2208 
L 2061 2627 
z
" transform="scale(0.015625)"/>
      <path id="CMSS17-6b" d="M 1696 1688 
L 2688 2739 
L 2074 2739 
L 954 1554 
L 954 4416 
L 480 4416 
L 480 0 
L 947 0 
L 947 892 
L 1376 1344 
L 2278 0 
L 2822 0 
L 1696 1688 
z
" transform="scale(0.015625)"/>
      <path id="CMSS17-72" d="M 954 1363 
C 954 1965 1395 2368 1958 2368 
L 1958 2789 
C 1549 2789 1165 2585 934 2253 
L 934 2758 
L 480 2758 
L 480 0 
L 954 0 
L 954 1363 
z
" transform="scale(0.015625)"/>
      <path id="CMSS17-66" d="M 1075 2368 
L 1722 2368 
L 1722 2737 
L 1062 2737 
L 1062 3559 
C 1062 4014 1408 4092 1606 4092 
C 1670 4092 1850 4092 2080 4009 
L 2080 4429 
C 1933 4461 1754 4480 1613 4480 
C 1018 4480 602 3993 602 3359 
L 602 2737 
L 160 2737 
L 160 2368 
L 602 2368 
L 602 0 
L 1075 0 
L 1075 2368 
z
" transform="scale(0.015625)"/>
      <path id="CMSS17-62" d="M 954 4416 
L 480 4416 
L 480 -13 
L 966 -13 
L 966 274 
C 1210 38 1504 -64 1766 -64 
C 2381 -64 2880 549 2880 1352 
C 2880 2086 2496 2756 1926 2756 
C 1523 2756 1165 2591 954 2419 
L 954 4416 
z
M 966 2046 
C 1107 2222 1306 2368 1587 2368 
C 1965 2368 2394 2097 2394 1352 
C 2394 558 1882 325 1530 325 
C 1402 325 1267 356 1139 464 
C 966 615 966 709 966 797 
L 966 2046 
z
" transform="scale(0.015625)"/>
      <path id="CMSS17-68" d="M 2618 1891 
C 2618 2292 2522 2820 1798 2820 
C 1395 2820 1133 2623 947 2407 
L 947 4448 
L 474 4448 
L 474 32 
L 960 32 
L 960 1573 
C 960 1973 1114 2432 1549 2432 
C 2112 2432 2131 2056 2131 1839 
L 2131 32 
L 2618 32 
L 2618 1891 
z
" transform="scale(0.015625)"/>
      <path id="CMSS17-4c" d="M 1670 414 
C 1594 414 1517 414 1440 414 
L 1101 414 
L 1101 4416 
L 563 4416 
L 563 0 
L 3002 0 
L 3002 414 
L 1670 414 
z
" transform="scale(0.015625)"/>
      <path id="CMSS17-77" d="M 4013 2752 
L 3526 2752 
L 3187 1601 
C 3117 1358 2918 685 2893 371 
L 2886 371 
C 2874 564 2765 1024 2586 1633 
L 2259 2752 
L 1818 2752 
L 1498 1658 
C 1338 1101 1216 627 1203 371 
L 1197 371 
C 1171 749 909 1633 870 1773 
L 582 2752 
L 83 2752 
L 915 0 
L 1402 0 
C 1734 1096 1990 1943 2010 2370 
C 2022 2160 2131 1707 2195 1484 
L 2618 0 
L 3181 0 
L 4013 2752 
z
" transform="scale(0.015625)"/>
      <path id="CMSS17-2d" d="M 1664 1216 
L 1664 1585 
L 64 1585 
L 64 1216 
L 1664 1216 
z
" transform="scale(0.015625)"/>
      <path id="CMSS17-46" d="M 2918 1984 
L 2918 2373 
L 1101 2373 
L 1101 3968 
L 1882 3968 
C 1958 3968 2035 3968 2112 3968 
L 3168 3968 
L 3168 4375 
L 563 4375 
L 563 -32 
L 1101 -32 
L 1101 1984 
L 2918 1984 
z
" transform="scale(0.015625)"/>
      <path id="CMSS17-6c" d="M 947 4416 
L 474 4416 
L 474 0 
L 947 0 
L 947 4416 
z
" transform="scale(0.015625)"/>
     </defs>
     <use xlink:href="#CMSS17-53" transform="scale(0.996264)"/>
     <use xlink:href="#CMSS17-70" transform="translate(52.048516 0) scale(0.996264)"/>
     <use xlink:href="#CMSS17-65" transform="translate(102.855898 0) scale(0.996264)"/>
     <use xlink:href="#CMSS17-63" transform="translate(144.49472 0) scale(0.996264)"/>
     <use xlink:href="#CMSS17-69" transform="translate(186.133542 0) scale(0.996264)"/>
     <use xlink:href="#CMSS17-c" transform="translate(208.314265 0) scale(0.996264)"/>
     <use xlink:href="#CMSS17-63" transform="translate(258.441002 0) scale(0.996264)"/>
     <use xlink:href="#CMSS17-61" transform="translate(300.079825 0) scale(0.996264)"/>
     <use xlink:href="#CMSS17-74" transform="translate(345.001745 0) scale(0.996264)"/>
     <use xlink:href="#CMSS17-69" transform="translate(378.833312 0) scale(0.996264)"/>
     <use xlink:href="#CMSS17-6f" transform="translate(401.014035 0) scale(0.996264)"/>
     <use xlink:href="#CMSS17-6e" transform="translate(447.857658 0) scale(0.996264)"/>
     <use xlink:href="#CMSS17-6d" transform="translate(527.291714 0) scale(0.996264)"/>
     <use xlink:href="#CMSS17-61" transform="translate(601.520969 0) scale(0.996264)"/>
     <use xlink:href="#CMSS17-73" transform="translate(646.442889 0) scale(0.996264)"/>
     <use xlink:href="#CMSS17-6b" transform="translate(682.356431 0) scale(0.996264)"/>
     <use xlink:href="#CMSS17-61" transform="translate(759.188033 0) scale(0.996264)"/>
     <use xlink:href="#CMSS17-6e" transform="translate(804.109954 0) scale(0.996264)"/>
     <use xlink:href="#CMSS17-64" transform="translate(852.314897 0) scale(0.996264)"/>
     <use xlink:href="#CMSS17-72" transform="translate(931.748953 0) scale(0.996264)"/>
     <use xlink:href="#CMSS17-65" transform="translate(963.658725 0) scale(0.996264)"/>
     <use xlink:href="#CMSS17-73" transform="translate(1005.297548 0) scale(0.996264)"/>
     <use xlink:href="#CMSS17-70" transform="translate(1041.21109 0) scale(0.996264)"/>
     <use xlink:href="#CMSS17-6f" transform="translate(1092.018471 0) scale(0.996264)"/>
     <use xlink:href="#CMSS17-6e" transform="translate(1138.862095 0) scale(0.996264)"/>
     <use xlink:href="#CMSS17-73" transform="translate(1187.067038 0) scale(0.996264)"/>
     <use xlink:href="#CMSS17-65" transform="translate(1222.98058 0) scale(0.996264)"/>
     <use xlink:href="#CMSS17-6f" transform="translate(1295.848515 0) scale(0.996264)"/>
     <use xlink:href="#CMSS17-66" transform="translate(1342.692138 0) scale(0.996264)"/>
     <use xlink:href="#CMSS17-62" transform="translate(1402.54791 0) scale(0.996264)"/>
     <use xlink:href="#CMSS17-6f" transform="translate(1453.355292 0) scale(0.996264)"/>
     <use xlink:href="#CMSS17-74" transform="translate(1500.198915 0) scale(0.996264)"/>
     <use xlink:href="#CMSS17-68" transform="translate(1534.030482 0) scale(0.996264)"/>
     <use xlink:href="#CMSS17-4c" transform="translate(1613.464538 0) scale(0.996264)"/>
     <use xlink:href="#CMSS17-6f" transform="translate(1664.151643 0) scale(0.996264)"/>
     <use xlink:href="#CMSS17-77" transform="translate(1708.392813 0) scale(0.996264)"/>
     <use xlink:href="#CMSS17-2d" transform="translate(1772.212358 0) scale(0.996264)"/>
     <use xlink:href="#CMSS17-70" transform="translate(1803.441471 0) scale(0.996264)"/>
     <use xlink:href="#CMSS17-61" transform="translate(1851.646414 0) scale(0.996264)"/>
     <use xlink:href="#CMSS17-73" transform="translate(1896.568334 0) scale(0.996264)"/>
     <use xlink:href="#CMSS17-73" transform="translate(1932.481876 0) scale(0.996264)"/>
     <use xlink:href="#CMSS17-46" transform="translate(1999.624531 0) scale(0.996264)"/>
     <use xlink:href="#CMSS17-69" transform="translate(2052.91409 0) scale(0.996264)"/>
     <use xlink:href="#CMSS17-6c" transform="translate(2075.094814 0) scale(0.996264)"/>
     <use xlink:href="#CMSS17-74" transform="translate(2097.275537 0) scale(0.996264)"/>
     <use xlink:href="#CMSS17-65" transform="translate(2131.107103 0) scale(0.996264)"/>
     <use xlink:href="#CMSS17-72" transform="translate(2172.745925 0) scale(0.996264)"/>
     <use xlink:href="#CMSS17-73" transform="translate(2204.655698 0) scale(0.996264)"/>
    </g>
   </g>
   <g id="legend_1">
    <g id="patch_7">
     <path d="M 64.6 79.39728 
L 199.39877 79.39728 
Q 201.39877 79.39728 201.39877 77.39728 
L 201.39877 48.472 
Q 201.39877 46.472 199.39877 46.472 
L 64.6 46.472 
Q 62.6 46.472 62.6 48.472 
L 62.6 77.39728 
Q 62.6 79.39728 64.6 79.39728 
z
" style="fill: #ffffff; opacity: 0.8; stroke: #cccccc; stroke-linejoin: miter"/>
    </g>
    <g id="line2d_31">
     <path d="M 66.6 54.44398 
L 76.6 54.44398 
L 86.6 54.44398 
" style="fill: none; stroke: #0000ff; stroke-width: 1.5; stroke-linecap: square"/>
    </g>
    <g id="text_18">
     <!-- $\alpha(f)$ of initial LPF -->
     <g transform="translate(94.6 57.94398) scale(0.1 -0.1)">
      <defs>
       <path id="CMR17-28" d="M 1958 -1561 
C 1958 -1555 1958 -1542 1939 -1523 
C 1645 -1224 858 -407 858 1581 
C 858 3569 1632 4379 1946 4697 
C 1946 4704 1958 4717 1958 4736 
C 1958 4755 1939 4768 1914 4768 
C 1843 4768 1299 4296 986 3594 
C 666 2887 576 2199 576 1588 
C 576 1128 621 351 1005 -471 
C 1312 -1135 1837 -1600 1914 -1600 
C 1946 -1600 1958 -1587 1958 -1561 
z
" transform="scale(0.015625)"/>
       <path id="CMR17-29" d="M 1683 1581 
C 1683 2040 1638 2817 1254 3639 
C 947 4303 422 4768 346 4768 
C 326 4768 301 4761 301 4729 
C 301 4717 307 4710 314 4697 
C 621 4378 1402 3568 1402 1584 
C 1402 -407 627 -1217 314 -1537 
C 307 -1549 301 -1556 301 -1568 
C 301 -1600 326 -1600 346 -1600 
C 416 -1600 960 -1128 1274 -426 
C 1594 281 1683 969 1683 1581 
z
" transform="scale(0.015625)"/>
       <path id="CMSS17-50" d="M 2106 1856 
C 2874 1856 3501 2453 3501 3158 
C 3501 3850 2899 4453 2067 4453 
L 570 4453 
L 570 0 
L 1107 0 
L 1107 1856 
L 2106 1856 
z
M 1926 4096 
C 2669 4096 2995 3627 2995 3157 
C 2995 2720 2694 2226 1926 2226 
L 1094 2226 
L 1094 4096 
L 1926 4096 
z
" transform="scale(0.015625)"/>
      </defs>
      <use xlink:href="#CMMI12-b" transform="scale(0.996264)"/>
      <use xlink:href="#CMR17-28" transform="translate(62.681023 0) scale(0.996264)"/>
      <use xlink:href="#CMMI12-66" transform="translate(97.961791 0) scale(0.996264)"/>
      <use xlink:href="#CMR17-29" transform="translate(156.682095 0) scale(0.996264)"/>
      <use xlink:href="#CMSS17-6f" transform="translate(223.191976 0) scale(0.996264)"/>
      <use xlink:href="#CMSS17-66" transform="translate(270.0356 0) scale(0.996264)"/>
      <use xlink:href="#CMSS17-69" transform="translate(329.891371 0) scale(0.996264)"/>
      <use xlink:href="#CMSS17-6e" transform="translate(352.072094 0) scale(0.996264)"/>
      <use xlink:href="#CMSS17-69" transform="translate(400.277037 0) scale(0.996264)"/>
      <use xlink:href="#CMSS17-74" transform="translate(422.45776 0) scale(0.996264)"/>
      <use xlink:href="#CMSS17-69" transform="translate(456.289327 0) scale(0.996264)"/>
      <use xlink:href="#CMSS17-61" transform="translate(478.47005 0) scale(0.996264)"/>
      <use xlink:href="#CMSS17-6c" transform="translate(523.391971 0) scale(0.996264)"/>
      <use xlink:href="#CMSS17-4c" transform="translate(576.801806 0) scale(0.996264)"/>
      <use xlink:href="#CMSS17-50" transform="translate(627.488912 0) scale(0.996264)"/>
      <use xlink:href="#CMSS17-46" transform="translate(687.224498 0) scale(0.996264)"/>
     </g>
    </g>
    <g id="line2d_32">
     <path d="M 66.6 69.40662 
L 76.6 69.40662 
L 86.6 69.40662 
" style="fill: none; stroke: #008000; stroke-width: 1.5; stroke-linecap: square"/>
    </g>
    <g id="text_19">
     <!-- $\alpha(f)$ of Third-order LPF -->
     <g transform="translate(94.6 72.90662) scale(0.1 -0.1)">
      <defs>
       <path id="CMSS17-54" d="M 2317 3968 
L 2848 3968 
C 2925 3968 3002 3968 3078 3968 
L 3878 3968 
L 3878 4376 
L 218 4376 
L 218 3968 
L 1018 3968 
C 1094 3968 1171 3968 1248 3968 
L 1779 3968 
L 1779 -32 
L 2317 -32 
L 2317 3968 
z
" transform="scale(0.015625)"/>
      </defs>
      <use xlink:href="#CMMI12-b" transform="scale(0.996264)"/>
      <use xlink:href="#CMR17-28" transform="translate(62.681023 0) scale(0.996264)"/>
      <use xlink:href="#CMMI12-66" transform="translate(97.961791 0) scale(0.996264)"/>
      <use xlink:href="#CMR17-29" transform="translate(156.682095 0) scale(0.996264)"/>
      <use xlink:href="#CMSS17-6f" transform="translate(223.191976 0) scale(0.996264)"/>
      <use xlink:href="#CMSS17-66" transform="translate(270.0356 0) scale(0.996264)"/>
      <use xlink:href="#CMSS17-54" transform="translate(329.891371 0) scale(0.996264)"/>
      <use xlink:href="#CMSS17-68" transform="translate(393.710825 0) scale(0.996264)"/>
      <use xlink:href="#CMSS17-69" transform="translate(441.915768 0) scale(0.996264)"/>
      <use xlink:href="#CMSS17-72" transform="translate(464.096491 0) scale(0.996264)"/>
      <use xlink:href="#CMSS17-64" transform="translate(496.006264 0) scale(0.996264)"/>
      <use xlink:href="#CMSS17-2d" transform="translate(544.211207 0) scale(0.996264)"/>
      <use xlink:href="#CMSS17-6f" transform="translate(575.44032 0) scale(0.996264)"/>
      <use xlink:href="#CMSS17-72" transform="translate(619.681489 0) scale(0.996264)"/>
      <use xlink:href="#CMSS17-64" transform="translate(651.591262 0) scale(0.996264)"/>
      <use xlink:href="#CMSS17-65" transform="translate(699.796205 0) scale(0.996264)"/>
      <use xlink:href="#CMSS17-72" transform="translate(741.435027 0) scale(0.996264)"/>
      <use xlink:href="#CMSS17-4c" transform="translate(804.573912 0) scale(0.996264)"/>
      <use xlink:href="#CMSS17-50" transform="translate(855.261018 0) scale(0.996264)"/>
      <use xlink:href="#CMSS17-46" transform="translate(914.996604 0) scale(0.996264)"/>
     </g>
    </g>
   </g>
  </g>
 </g>
 <defs>
  <clipPath id="p259b922350">
   <rect x="57.6" y="41.472" width="357.12" height="266.112"/>
  </clipPath>
 </defs>
</svg>
